<?xml version="1.0" encoding="UTF-8"?>
<svg version="1.1" viewBox="0 0 1024 1024" width="1024" height="1024" xmlns="http://www.w3.org/2000/svg">
<path transform="translate(0)" d="m0 0h1024v1024h-1024z" fill="#FDFDFD"/>
<path transform="translate(779,470)" d="m0 0 13 1 12 6 6 5v2h2v-11l22-1 1 1v129l-2 1h-21l-1-1-1-46-9 7-9 4-5 1h-10l-10-2-10-5-9-8-7-12-3-9-1-7v-11l2-12 7-14 6-7 10-7 10-3z" fill="#8449ED"/>
<path transform="translate(496,470)" d="m0 0 13 1 11 4 9 7 8 10 5 12 1 4v22l-4 13-6 9-5 5-6 5-8 4-10 2h-11l-10-3-11-7-2-2-1 47h-22l-1-1-1-129 1-1h21l1 1 1 11 4-5 7-5 8-3z" fill="#8449ED"/>
<path transform="translate(589,471)" d="m0 0h21l12 6 8 7-1-2v-9l1-1h21l1 1v92l-9 1h-13l-1-1-1-10h-2l-2 4-10 6-10 3h-12l-13-4-10-7-7-8-6-13-2-9v-16l3-12 6-11 10-10 12-6z" fill="#8449ED"/>
<path transform="translate(292,470)" d="m0 0h9l14 3 9 5 8 7 6 10 4 12 1 7v11l-1 1h-70l4 11 4 5 8 4 5 1h11l10-4h2v-2l5-5 6 2 13 7-4 7-9 8-10 5-6 2-8 1h-11l-14-3-11-6-7-6-7-10-4-10-1-6v-15l3-12 6-11 7-8 9-6 7-3z" fill="#8449ED"/>
<path transform="translate(388,470)" d="m0 0h9l11 2 11 6 7 9 2 5-15 7h-5l-3-4v-2l-5-2-2-1h-11l-6 3-1 7 4 4 11 4 17 5 9 5 6 7 3 7v13l-5 10-8 7-8 4-11 2h-14l-12-3-9-5-8-8-3-6 1-4 15-6h4l3 5v2l4 2 8 3h11l6-3 2-4-1-6-6-4-24-7-11-6-6-7-2-5v-13l4-9 4-5 10-6z" fill="#8449ED"/>
<path transform="translate(900,320)" d="m0 0 2 1-12 54-1 5 44 1-2 5-10 13-10 14-9 12-11 15-13 18-10 13-2 1 4-20 9-40 1-2h-45l2-4 26-36 10-13 12-17 13-17z" fill="#8449ED"/>
<path transform="translate(227,471)" d="m0 0h15l1 1-1 22h-14l-8 3-5 4-5 10-1 7-1 47-1 1h-22l-1-1v-92l3-1h20l1 15 6-8 7-6z" fill="#8449ED"/>
<path transform="translate(722,470)" d="m0 0 9 1 1 1v21l-4 1h-11l-8 3-5 5-5 10-1 7v46l-6 1-18-1v-92l2-1h19l1 1v14h2l2-5 7-7 9-4z" fill="#8449ED"/>
<path transform="translate(598,492)" d="m0 0h11l9 4 7 8 3 7 1 10-2 10-6 8-6 5-6 2h-11l-8-3-5-4-5-8-2-8v-8l3-10 4-6 7-5z" fill="#FDFDFD"/>
<path transform="translate(488,492)" d="m0 0h11l8 3 7 6 4 8 1 4v13l-4 9-7 8-8 3h-12l-10-5-6-8-3-8v-11l3-9 6-8z" fill="#FDFDFD"/>
<path transform="translate(780,492)" d="m0 0h12l10 5 6 8 3 7v14l-3 8-7 8-8 4h-13l-8-4-7-7-4-11v-9l3-10 6-8z" fill="#FDFDFD"/>
<path transform="translate(388,470)" d="m0 0h9l11 2 11 6 7 9 2 5-15 7h-5l-3-4v-2l-5-2-2-1h-11l-6 3-1 7 4 4 11 4 17 5 9 5 6 7 3 7v13l-5 10-8 7-8 4-11 2h-14l-12-3-9-5-8-8-3-6 1-4 15-6h4l3 5v2l4 2 8 3h11l6-3 2-4-1-6-6-4-24-7-11-6-6-7-2-5v-13l4-9 4-5 10-6zm-6 3-15 6-7 8-3 13 2 8h2l1 5 5 4 5 3 6 3 25 7 4 5v9l-5 5-4 1h-10l-8-1v-2l-5-2-3-3-1-3-9 1-6 3-1 5 4 6 6 5 9 4 4 2h26l9-3 5-3v-2h3l5-8 2-4v-13l-5-10-4-1v-2l-12-6-15-3-4-2-6-1v-2l-3-3h-2l2-11 4-2 1-1h16l5 4 5 5 10-4 3-2 1-4-3-4h-2v-2h-2v-2l-10-5-6-1z" fill="#804BD3"/>
<path transform="translate(900,320)" d="m0 0 2 1-12 54-1 5 44 1-2 5-10 13-10 14-9 12-11 15-13 18-10 13-2 1 4-20 9-40 1-2h-45l2-4 26-36 10-13 12-17 13-17zm-6 15-3 4-5 3-5 7v2l-2 1 1 2h-2v2l-3 1-4 6v2h-2l-4 7-5 5-1 4h-2l-5 8v2l-4 2-5 9-2 2 1 4 38 1v7l-3 18-3 9-2 12 3 3v-3h2l2-4h2l3-5v-2l2-1 1-3h2l4-5v-3l3-1v-3h2l6-9 5-8 4-4 3-5v-2h2l6-8v-2h2l2-5-1-1-14-1h-23l-2-1v-7l2-13 2-6 3-14 1-6z" fill="#804BD4"/>
<path transform="translate(292,470)" d="m0 0h9l14 3 9 5 8 7 6 10 4 12 1 7v11l-1 1h-70l4 11 4 5 8 4 5 1h11l10-4h2v-2l5-5 6 2 13 7-4 7-9 8-10 5-6 2-8 1h-11l-14-3-11-6-7-6-7-10-4-10-1-6v-15l3-12 6-11 7-8 9-6 7-3zm-3 3-7 2-9 3-9 6v2l-4 2-3 4v3l-2 1-4 11-1 8v13l4 13 7 10h2l1 3h2v2h3v2h2l1 2 12 4 2 1h14l3 1 10-2 10-4 6-4v-2h2v-2l4-2v-2h2l-1-3-5-2-4-3h-7v3l-4 1-8 4-4 1h-12l-9-1-1-3-4-2-5-6-3-9v-4h70l1-4-1-13-4-12-7-10-3-3h-2v-2l-13-6-3-1z" fill="#804BD4"/>
<path transform="translate(289,490)" d="m0 0h14l8 4 6 7 2 4v5h-45l-2-1 3-9 4-5 7-4z" fill="#FDFDFD"/>
<path transform="translate(722,470)" d="m0 0 9 1 1 1v21l-4 1h-11l-8 3-5 5-5 10-1 7v46l-6 1-18-1v-92l2-1h19l1 1v15l-2-2v-11l-18 1v87h19v-45l2-11 4-9 15-7h13v-17h-13l-8 4-4 4-4 6-1-4 7-8 10-5z" fill="#7F4BD0"/>
<path transform="translate(496,470)" d="m0 0 13 1 11 4 9 7 8 10 5 12 1 4v22l-4 13-6 9-5 5-6 5-8 4-10 2h-11l-10-3-11-7-2-2 1-3 3 2 5 5 5 1 4 2 6 2 14-1 15-5v-2l5-2v-3l3-3 5-6 3-9 1-5v-21l-5-14-4-4v-3l-3 1-2-1v-3l-5-4-3-1 1-1-5-1-3-1-7-2h-10l-3 1-3-1-7 3-4 4-2 3h-4v2h-2l2-4 5-5 7-4 5-2z" fill="#804BD3"/>
<path transform="translate(227,471)" d="m0 0h15l1 1-1 22h-14l-8 3-5 4-5 10-1 7-1 47-1 1h-22l-1-2 1-89h1v85h2v3l18-1-1-2v-28l3-24 5-9 5-4h2v-2l7-2h12l1-18-13 1-9 4-4 4-2 4-4 2 4-7 9-8z" fill="#7F4BD0"/>
<path transform="translate(833,472)" d="m0 0 2 1v129l-2 1h-21l-1-1v-45l2-2v45h19v-125h-18v9h-2v-11z" fill="#814AD9"/>
<path transform="translate(779,470)" d="m0 0 13 1 12 6 6 5 1 4-7-3-3-5-6-2-9-2h-11l-4 2-8 1-5 2-2 5-5 1v2h-2l-2 5-4 7v3h-2v7l-1 3v14l3 13 3 6 8 10 4 2 3 3 4 2 9 2 5 1h8l10-3 8-5 4-4 2 1-4 5-10 6-10 3h-10l-10-2-10-5-9-8-7-12-3-9-1-7v-11l2-12 7-14 6-7 10-7 10-3z" fill="#804BD4"/>
<path transform="translate(446,472)" d="m0 0h21l1 1v11h-2l-1-8-2-1h-15v126h18v-16l1-32 2 2v48h-22l-1-1-1-129z" fill="#7F4BCF"/>
<path transform="translate(900,320)" d="m0 0 2 1-12 54-1 5 44 1v1h-46v-7l2-13 2-6 3-14 1-6-4 4-4 2-7 10v2h-2v2l-4 4-3 5h-2l-2 5-2 3h-2l-4 8h-2l-2 5-3 5-4 4-4 7-1 2-4 1 2-5 12-16 13-18 10-13 10-14z" fill="#804BD6"/>
<path transform="translate(596,490)" d="m0 0h13l8 3 8 7 1 4h2l3 10v10l-3 10-6 7-3 1v2l-7 4-12 1-4-1v-2l-9-2-1-3-4-2 1-2h-2v-3h-2l-3-9v-9l2-10 3-6h2l1-4zm2 2-9 4-5 5-4 6-2 8v8l3 10 4 6 9 6 4 1h11l9-4 8-9 2-5 1-12-3-10-4-6-7-6-6-2z" fill="#804BD5"/>
<path transform="translate(494,489)" d="m0 0h5l7 3 3 1v2l4 2 6 9 2 5v14l-2 8-8 10-5 3h-2v3l-17-1-7-3v-2l-5-2v-2h-2l-5-10-1-5v-10l2-9h2l1-5 7-6 9-4zm-6 3-10 5-7 9-2 8v11l4 10 5 6 10 5h12l9-4 7-8 3-8v-13l-3-9-6-7-7-4-4-1z" fill="#7F4BD2"/>
<path transform="translate(782,490)" d="m0 0h16l10 10 5 11v13l-3 10-6 9-4 2-8 3h-13l-10-5v-2h-2l-5-5-2-7-1-16 1-7 3-3 2-4 7-6 3-1zm-2 2-10 5-6 8-3 10v9l4 11 8 8 7 3h13l8-4 7-8 3-8v-14l-6-12-6-5-7-3z" fill="#804BD3"/>
<path transform="translate(630,472)" d="m0 0h21l1 1v92l-9 1h-13l-1-1 1-12h1l1 10h18v-88h-18l-1 10-2-3v-9z" fill="#7F4BD1"/>
<path transform="translate(292,470)" d="m0 0h9l14 3 9 5 8 7 6 10 4 12 1 7v11l-1 1h-70v-1l66-1 2-1-1-16-4-12-7-10-4-3v-2l-6-2-10-4h-19l-7 2-9 3-5 3-2-1 4-4 10-5z" fill="#814ADA"/>
<path transform="translate(589,471)" d="m0 0h21l12 6 6 6v2h-2l-5-5-9-5-4-1-19 1-3 1-4 1-7 2v2h-2v2l-4 2-2 4h-2l-2 5-2 2-4 14v17l3 12-1 4-4-11-1-5v-16l3-12 6-11 10-10 12-6z" fill="#804BD4"/>
<path transform="translate(722,470)" d="m0 0 9 1 1 1v21l-4 1h-11l-8 3-5 5-5 10-2-1 1-5 2-7 16-8h13v-17h-13l-8 4-4 4-4 6-1-4 7-8 10-5z" fill="#7F4BCF"/>
<path transform="translate(285,488)" d="m0 0h20l10 7 5 8-1 4-6-10-7-5-3-1h-14l-7 3-5 5-5 10h45v3h-42l-4-1-1-6 4-7 2-1 1-3h2v-2l6-3z" fill="#804BD3"/>
<path transform="translate(542,528)" d="m0 0 1 2-4 13-6 9-5 5-6 5-8 4-10 2h-11l-10-3-11-7-2-2 1-3 3 2 5 5 5 1 4 2 6 2 14-1 15-5v-2l5-2v-3l3-3 5-6 3-9 2-5z" fill="#7F4BD3"/>
<path transform="translate(185,472)" d="m0 0h22v16l-2-1-1-9-1-2-18-1v89h-1v-91z" fill="#824AE1"/>
<path transform="translate(561,544)" d="m0 0 3 2 2 1 2 5 4 2-1 1 3 2 3 3h3v2l16 3 10-1 7-2 4-2h3l2-4 6-4v3h-2l-2 4-10 6-10 3h-12l-13-4-10-7-7-8z" fill="#804BD3"/>
<path transform="translate(270,524)" d="m0 0h68v1h-66l3 10 5 7 8 4 16 2v2h-12l-9-2-11-11-3-9z" fill="#7F4BCF"/>
<path transform="translate(779,470)" d="m0 0 13 1 12 6 6 5 1 4-7-3-3-5-6-2-9-2h-11l-4 2-8 1-5 2-2 5-5 1 6-8 8-4z" fill="#7F4BD3"/>
<path transform="translate(896,337)" d="m0 0h1l-1 10-7 33 44 1v1h-46v-7l2-13 2-6 3-14z" fill="#814ADC"/>
<path transform="translate(589,471)" d="m0 0h21l12 6 6 6v2h-2l-5-5-9-5-4-1-19 1-3 1-8 2 2-4z" fill="#7F4BD1"/>
<path transform="translate(812,555)" d="m0 0h1v45h10l5 2v1h-16l-1-1v-45z" fill="#7F4BD2"/>
<path transform="translate(266,480)" d="m0 0m-2 1h2l-2 5-5 5-6 12-2 12v13l1 8h-2l-2-9v-15l3-12 6-11z" fill="#804BD6"/>
<path transform="translate(782,490)" d="m0 0h16l10 10 5 11v13h-2l-1-12-6-12-5-4-7-3-12-1z" fill="#7F4BD0"/>
<path transform="translate(722,470)" d="m0 0 9 1 1 1v21h-1l-1-18-3-1h-11l-8 4-4 4-4 6-1-4 7-8 10-5z" fill="#814ADD"/>
<path transform="translate(840,404)" d="m0 0 2 3 38 1v3l-45-1 2-4z" fill="#7F4BCF"/>
<path transform="translate(755,479)" d="m0 0m-1 1m-2 1 2 1-3 5h-2l-2 5-4 7v3h-2v7l-1 3v9l-1 5-2-1v-11l2-12 7-14z" fill="#804BD5"/>
<path transform="translate(888,382)" d="m0 0h45l-4 7-3 2 1-6-14-1h-23z" fill="#7F4CCE"/>
<path transform="translate(275,509)" d="m0 0h42v3h-42l-4-2z" fill="#7F4BCE"/>
<path transform="translate(446,472)" d="m0 0h21l1 1v11h-2l-1-8-2-1h-15l-1 4h-2v-6z" fill="#814AD9"/>
<path transform="translate(627,552)" d="m0 0 1 3h-2l-2 4-10 6-10 3h-12v-1l9-1 5-2 7-2 4-2h3l2-4z" fill="#7F4BD2"/>
<path transform="translate(400,529)" d="m0 0 4 1 4 5v9l-4 5-6 2h-10v-2l13-2 4-3 1-7-5-5z" fill="#7F4BD1"/>
<path transform="translate(470,553)" d="m0 0 4 2 5 5 5 1 10 5 10 1v1h-11l-10-3-11-7-2-2z" fill="#804BD4"/>
<path transform="translate(526,555)" d="m0 0m-1 1m-2 1h2l-1 4-10 5-4 1h-16l1-2 13-1 15-5z" fill="#7F4BD2"/>
<path transform="translate(626,504)" d="m0 0h2l3 10v10l-3 10-3 3-2-1 4-8 1-12-2-8z" fill="#7F4BD2"/>
<path transform="translate(630,553)" d="m0 0h1l1 10h14l2 2-5 1h-13l-1-1z" fill="#804BD4"/>
<path transform="translate(469,530)" d="m0 0 3 1 6 9 10 5 8 1-4 2-8-1-4-2v-2l-5-2v-2h-2l-4-7z" fill="#804BD5"/>
<path transform="translate(811,524)" d="m0 0h1l-1 7-3 6-4 6-4 2-8 3h-8v-1l12-3 8-6 5-8z" fill="#804BD3"/>
<path transform="translate(713,492)" d="m0 0m-2 1h2v2l-8 5-6 12-2-1 1-5 2-7z" fill="#804BD3"/>
<path transform="translate(370,519)" d="m0 0 7 2 8 3 14 4v3l-24-7-5-3z" fill="#804BD5"/>
<path transform="translate(301,488)" d="m0 0 5 1 9 6 5 8-1 4-6-10-7-5-3-1-11-1v-1z" fill="#7F4BD1"/>
<path transform="translate(250,507)" d="m0 0h1v21l1 8h-2l-2-9v-15z" fill="#814AD8"/>
<path transform="translate(399,510)" d="m0 0 7 1 12 5 6 5-4 2-6-6-15-6z" fill="#804BD6"/>
<path transform="translate(716,471)" d="m0 0 3 1-11 6-4 4-4 6-1-4 7-8z" fill="#804BD4"/>
<path transform="translate(223,492)" d="m0 0 5 1-4 2-7 4-6 9-2-1 2-5 5-6 4-1v-2z" fill="#804BD4"/>
<path transform="translate(394,487)" d="m0 0h6l6 5 7 7h-5l-3-4v-2l-5-2-10-2z" fill="#804BD7"/>
<path transform="translate(579,560)" d="m0 0 1 2 16 3 5 1v1h-14l-9-4z" fill="#7F4BD0"/>
<path transform="translate(271,526)" d="m0 0 6 12 5 5v2l-5-2-5-6-2-9z" fill="#804BD4"/>
<path transform="translate(853,386)" d="m0 0v3l-5 6-4 7-1 2-4 1 2-5 8-11z" fill="#804BD3"/>
<path transform="translate(919,382)" d="m0 0h14l-4 7-3 2 1-6-8-1z" fill="#7F4BD1"/>
<path transform="translate(577,512)" d="m0 0h1l2 16 2 6h-3l-3-9v-9z" fill="#7F4BD1"/>
<path transform="translate(610,472)" d="m0 0 5 1 9 6 4 4v2h-2l-5-5-9-5-2-1z" fill="#804BD3"/>
<path transform="translate(541,509)" d="m0 0 2 2v17l-2 1-1-19z" fill="#7F4CCE"/>
<path transform="translate(357,553)" d="m0 0h4v3l4 2 7 3-2 3-8-5z" fill="#7F4BD2"/>
<path transform="translate(612,563)" d="m0 0m-6 1h6v2l-8 2h-12v-1l9-1z" fill="#814ADA"/>
<path transform="translate(542,528)" d="m0 0 1 2-4 13-3 4 1-7 2-6 2-5z" fill="#804BD6"/>
<path transform="translate(465,472)" d="m0 0 3 1v11h-2l-1-8-2-1v-2z" fill="#7F4BCF"/>
<path transform="translate(501,491)" d="m0 0 8 2v2l4 2 1 3-4-2-7-4-4-2z" fill="#804BD5"/>
<path transform="translate(285,488)" d="m0 0h16v1l-12 2-8 3 2-4z" fill="#7F4BD0"/>
<path transform="translate(381,471)" d="m0 0 2 1-3 4-5 1-3 1-1-2 3-3z" fill="#7F4BD2"/>
<path transform="translate(494,489)" d="m0 0h5l2 3h-15l2-2z" fill="#7F4BCF"/>
<path transform="translate(883,345)" d="m0 0v3l-3 4v2h-2v2l-4 1 4-7z" fill="#7F4BD2"/>
<path transform="translate(801,476)" d="m0 0 4 2 5 4 1 4-7-3-3-5z" fill="#7F4BD0"/>
<path transform="translate(301,488)" d="m0 0 5 1 4 3-1 2-6-3-11-1v-1z" fill="#814ADB"/>
<path transform="translate(738,511)" d="m0 0 2 1v9l-1 5-2-1v-11z" fill="#814ADA"/>
<path transform="translate(254,495)" d="m0 0 2 2-3 6-1 4-3 1 3-10z" fill="#804BD3"/>
<path transform="translate(889,439)" d="m0 0 1 2-6 9-2-2 3-6h2v-2z" fill="#7F4BD2"/>
<path transform="translate(487,564)" d="m0 0 5 1 2 1 10 1v1h-11l-6-2z" fill="#824ADE"/>
<path transform="translate(775,544)" d="m0 0 15 2v1l-11 1-4-2z" fill="#814AD9"/>
<path transform="translate(738,526)" d="m0 0h2l2 7v5h-2l-2-6z" fill="#7F4BD2"/>
</svg>
